<?xml version="1.0" encoding="iso-8859-1"?>
<!-- Generator: Adobe Illustrator 16.0.0, SVG Export Plug-In . SVG Version: 6.00 Build 0)  -->
<!DOCTYPE svg PUBLIC "-//W3C//DTD SVG 1.1//EN" "http://www.w3.org/Graphics/SVG/1.1/DTD/svg11.dtd">
<svg version="1.1" id="Capa_1" xmlns="http://www.w3.org/2000/svg" xmlns:xlink="http://www.w3.org/1999/xlink" x="0px" y="0px"
	 width="37.284px" height="37.284px" viewBox="0 0 37.284 37.284" style="enable-background:new 0 0 37.284 37.284;"
	 xml:space="preserve">
<g>
	<path d="M34.594,27.251l-2.297-1.326v-5.224h-1.042v4.622l-6.435-3.716l4.19-1.123c0.281-0.073,0.443-0.359,0.369-0.637
		c-0.075-0.278-0.363-0.443-0.638-0.368l-5.2,1.393l-3.859-2.23l3.864-2.231l5.197,1.392c0.045,0.013,0.09,0.017,0.135,0.017
		c0.229,0,0.44-0.152,0.502-0.386c0.073-0.278-0.089-0.563-0.369-0.637l-4.189-1.123l6.433-3.713v4.575l1.042-0.001v-5.175
		l2.297-1.326c0.247-0.144,0.333-0.462,0.19-0.712c-0.144-0.25-0.46-0.334-0.711-0.19l-2.295,1.324l-4.527-2.612l-0.518,0.903
		l4.006,2.311l-6.438,3.717l1.125-4.194c0.072-0.277-0.092-0.563-0.369-0.637c-0.279-0.073-0.563,0.091-0.639,0.369l-1.394,5.2
		l-3.862,2.229v-4.46l3.805-3.804c0.203-0.204,0.203-0.534,0-0.736c-0.204-0.204-0.533-0.204-0.736,0l-3.069,3.067V4.38l3.964,2.286
		l0.519-0.903l-4.482-2.587V0.521C19.163,0.233,18.929,0,18.642,0s-0.521,0.233-0.521,0.521v2.655l-4.523,2.611l0.523,0.9l4-2.308
		v7.427l-3.067-3.067c-0.204-0.204-0.534-0.204-0.736,0c-0.204,0.203-0.204,0.533,0,0.736l3.804,3.805v4.46l-3.862-2.23l-1.394-5.2
		c-0.075-0.278-0.358-0.441-0.639-0.369c-0.277,0.074-0.442,0.361-0.369,0.637l1.125,4.194l-6.437-3.717l3.965-2.287L9.987,7.868
		l-4.484,2.587L3.21,9.131c-0.248-0.142-0.568-0.059-0.713,0.19c-0.145,0.25-0.059,0.568,0.192,0.712l2.297,1.326v5.224l1.042-0.001
		v-4.621l6.431,3.713l-4.19,1.123c-0.278,0.074-0.442,0.36-0.369,0.637c0.064,0.233,0.275,0.387,0.503,0.387
		c0.045,0,0.09-0.006,0.134-0.018l5.197-1.392l3.865,2.232l-3.862,2.229l-5.201-1.392c-0.274-0.075-0.56,0.092-0.637,0.369
		c-0.073,0.277,0.092,0.564,0.369,0.637l4.192,1.123l-6.436,3.716v-4.577L4.983,20.75v5.175l-2.297,1.326
		c-0.248,0.144-0.333,0.462-0.191,0.713c0.096,0.166,0.272,0.26,0.451,0.26c0.09,0,0.179-0.022,0.261-0.071l2.297-1.324l4.524,2.612
		l0.519-0.903l-4.002-2.309l6.433-3.715l-1.121,4.188c-0.074,0.278,0.091,0.563,0.369,0.637c0.044,0.013,0.09,0.019,0.135,0.019
		c0.229,0,0.441-0.152,0.503-0.387l1.391-5.196l3.865-2.229v4.457l-3.804,3.805c-0.204,0.204-0.204,0.533,0,0.736
		c0.203,0.204,0.533,0.204,0.736,0l3.067-3.067v7.43l-3.963-2.286l-0.518,0.902l4.481,2.586v2.655c0,0.287,0.235,0.521,0.521,0.521
		s0.521-0.233,0.521-0.521v-2.655l4.523-2.612l-0.522-0.898l-4.001,2.309v-7.43l3.067,3.07c0.103,0.102,0.235,0.151,0.369,0.151
		c0.133,0,0.268-0.051,0.369-0.151c0.203-0.204,0.203-0.533,0-0.737l-3.806-3.807v-4.457l3.863,2.229l1.391,5.196
		c0.065,0.232,0.274,0.387,0.504,0.387c0.042,0,0.089-0.006,0.134-0.019c0.279-0.075,0.443-0.362,0.368-0.639l-1.12-4.189
		l6.434,3.716l-3.963,2.286l0.522,0.901l4.482-2.586l2.297,1.324c0.081,0.047,0.171,0.069,0.26,0.069c0.18,0,0.354-0.095,0.451-0.26
		C34.931,27.713,34.845,27.394,34.594,27.251z"/>
</g>
<g>
</g>
<g>
</g>
<g>
</g>
<g>
</g>
<g>
</g>
<g>
</g>
<g>
</g>
<g>
</g>
<g>
</g>
<g>
</g>
<g>
</g>
<g>
</g>
<g>
</g>
<g>
</g>
<g>
</g>
</svg>
