<?xml version="1.0" encoding="iso-8859-1"?>
<!-- Generator: Adobe Illustrator 16.0.0, SVG Export Plug-In . SVG Version: 6.00 Build 0)  -->
<!DOCTYPE svg PUBLIC "-//W3C//DTD SVG 1.1//EN" "http://www.w3.org/Graphics/SVG/1.1/DTD/svg11.dtd">
<svg version="1.1" id="Capa_1" xmlns="http://www.w3.org/2000/svg" xmlns:xlink="http://www.w3.org/1999/xlink" x="0px" y="0px"
	 width="36.508px" height="36.508px" viewBox="0 0 36.508 36.508" style="enable-background:new 0 0 36.508 36.508;"
	 xml:space="preserve">
<g>
	<path d="M34.125,24.841c0-0.188-0.1-0.357-0.261-0.451l-1.972-1.14c-0.16-0.094-0.359-0.094-0.521,0l-1.767,1.021l-1.463-0.845
		V13.209l1.576-0.909l1.652,0.953c0.082,0.047,0.171,0.069,0.261,0.069s0.179-0.022,0.261-0.069l1.973-1.139
		c0.163-0.092,0.261-0.265,0.261-0.451l-0.002-1.209l0.002-1.067c0-0.186-0.098-0.359-0.261-0.453l-1.973-1.138
		c-0.161-0.093-0.359-0.092-0.521,0.001l-1.969,1.137c-0.162,0.092-0.262,0.265-0.262,0.452v2.046l-1.456,0.84l-8.91-5.139V5.378
		l1.711-0.989c0.161-0.092,0.261-0.265,0.261-0.451V1.66c0-0.185-0.1-0.356-0.261-0.449L18.513,0.07
		c-0.161-0.094-0.359-0.094-0.521,0l-1.974,1.142c-0.16,0.093-0.26,0.264-0.26,0.451V3.94c0,0.186,0.099,0.359,0.26,0.451
		l1.713,0.989v1.758l-8.911,5.138l-1.457-0.841V9.391c0-0.188-0.099-0.359-0.26-0.453L5.132,7.8
		C4.971,7.707,4.773,7.707,4.611,7.799L2.639,8.938c-0.16,0.093-0.26,0.264-0.26,0.453l-0.002,2.276
		c0,0.187,0.099,0.358,0.261,0.452l1.974,1.141c0.082,0.046,0.171,0.068,0.261,0.068c0.089,0,0.179-0.021,0.26-0.068l1.652-0.956
		l1.58,0.912v10.217l-1.463,0.843l-1.771-1.021c-0.161-0.093-0.358-0.092-0.52,0.001l-1.971,1.137
		c-0.161,0.094-0.262,0.267-0.262,0.453v2.277c0,0.186,0.099,0.358,0.261,0.45l1.972,1.142c0.082,0.047,0.171,0.069,0.261,0.069
		c0.089,0,0.179-0.022,0.26-0.069l1.972-1.142c0.162-0.092,0.261-0.265,0.261-0.45v-1.908L8.943,24.3l8.79,5.074v1.759l-1.713,0.985
		c-0.161,0.094-0.26,0.265-0.26,0.453v2.276c0,0.188,0.099,0.358,0.26,0.453l1.974,1.139c0.081,0.047,0.171,0.068,0.26,0.068
		s0.18-0.021,0.26-0.068l1.971-1.139c0.161-0.095,0.261-0.266,0.261-0.453v-2.276c0-0.188-0.099-0.359-0.261-0.453l-1.71-0.988
		v-1.757l8.789-5.075l1.581,0.911v1.909c0,0.187,0.099,0.359,0.261,0.451l1.974,1.142c0.079,0.047,0.171,0.069,0.26,0.069
		c0.09,0,0.18-0.022,0.261-0.069l1.972-1.142c0.16-0.092,0.26-0.265,0.26-0.451l0.002-1.211L34.125,24.841z M4.871,12.203
		l-1.453-0.839L3.42,9.688l1.45-0.836l1.452,0.839v1.672L4.871,12.203z M27.099,22.829l-3.969-2.291l2.738-0.731
		c0.277-0.075,0.441-0.361,0.368-0.638c-0.074-0.279-0.36-0.437-0.638-0.369l-3.745,1.003l-2.56-1.478l2.563-1.481l3.743,1.003
		c0.045,0.013,0.09,0.02,0.134,0.02c0.23,0,0.442-0.153,0.503-0.387c0.073-0.279-0.091-0.562-0.368-0.637l-2.736-0.732l3.968-2.289
		L27.099,22.829L27.099,22.829z M30.181,9.691l1.45-0.839l1.451,0.836v1.678l-1.452,0.836l-1.45-0.836L30.181,9.691L30.181,9.691z
		 M26.641,12.877l-4.032,2.328l0.735-2.74c0.072-0.278-0.092-0.563-0.369-0.637c-0.278-0.068-0.563,0.092-0.638,0.368l-1.002,3.745
		l-2.561,1.479v-2.959l2.738-2.74c0.204-0.203,0.204-0.534,0-0.737c-0.201-0.202-0.532-0.202-0.736,0l-2.001,2.004V8.337
		L26.641,12.877z M16.799,3.641V1.966l1.452-0.839l1.451,0.839V3.64l-1.451,0.838L16.799,3.641z M17.731,8.337v4.651l-2.004-2.004
		c-0.204-0.202-0.534-0.202-0.736,0c-0.204,0.203-0.204,0.534,0,0.737l2.74,2.74v2.959l-2.562-1.479l-1.004-3.747
		c-0.075-0.276-0.358-0.438-0.638-0.368c-0.278,0.074-0.442,0.361-0.369,0.638l0.734,2.737l-4.03-2.326L17.731,8.337z M9.405,13.815
		l3.968,2.288l-2.735,0.732c-0.278,0.076-0.442,0.36-0.369,0.638c0.062,0.233,0.273,0.386,0.502,0.386
		c0.045,0,0.089-0.006,0.135-0.018l3.743-1.003l2.562,1.479l-2.561,1.479l-3.745-1.004c-0.274-0.065-0.563,0.092-0.637,0.37
		c-0.074,0.276,0.09,0.562,0.369,0.636l2.738,0.732l-3.97,2.293L9.405,13.815L9.405,13.815z M6.32,26.818l-1.451,0.841l-1.451-0.841
		v-1.672l1.451-0.839l1.444,0.832c0.002,0.009,0.003,0.016,0.006,0.021L6.32,26.818L6.32,26.818z M9.985,23.697l3.908-2.258
		l-0.732,2.736c-0.074,0.279,0.091,0.563,0.369,0.638c0.045,0.011,0.09,0.018,0.136,0.018c0.23,0,0.44-0.151,0.502-0.387
		l1.002-3.739l2.562-1.481v2.958l-2.74,2.74c-0.204,0.204-0.204,0.535,0,0.737c0.102,0.104,0.235,0.152,0.369,0.152
		c0.133,0,0.267-0.051,0.369-0.152l2.004-2.004v4.517L9.985,23.697z M19.705,32.869v1.674l-1.452,0.838L16.8,34.542v-1.674
		l1.385-0.801c0.023,0.004,0.044,0.015,0.067,0.015s0.044-0.011,0.065-0.015L19.705,32.869z M18.773,28.171v-4.517l2.001,2.004
		c0.204,0.203,0.534,0.203,0.736,0c0.204-0.202,0.204-0.533,0-0.737l-2.738-2.74v-2.958l2.561,1.481l1.002,3.739
		c0.063,0.235,0.272,0.387,0.503,0.387c0.045,0,0.089-0.007,0.135-0.018c0.278-0.074,0.442-0.36,0.37-0.638l-0.732-2.736
		l3.908,2.258L18.773,28.171z M33.083,26.818l-1.451,0.841l-1.45-0.841v-1.653c0.004-0.009,0.005-0.017,0.009-0.025l1.441-0.834
		l1.451,0.841V26.818z"/>
</g>
<g>
</g>
<g>
</g>
<g>
</g>
<g>
</g>
<g>
</g>
<g>
</g>
<g>
</g>
<g>
</g>
<g>
</g>
<g>
</g>
<g>
</g>
<g>
</g>
<g>
</g>
<g>
</g>
<g>
</g>
</svg>
