<?xml version="1.0" encoding="iso-8859-1"?>
<!-- Generator: Adobe Illustrator 16.0.0, SVG Export Plug-In . SVG Version: 6.00 Build 0)  -->
<!DOCTYPE svg PUBLIC "-//W3C//DTD SVG 1.1//EN" "http://www.w3.org/Graphics/SVG/1.1/DTD/svg11.dtd">
<svg version="1.1" id="Capa_1" xmlns="http://www.w3.org/2000/svg" xmlns:xlink="http://www.w3.org/1999/xlink" x="0px" y="0px"
	 width="35.79px" height="35.79px" viewBox="0 0 35.79 35.79" style="enable-background:new 0 0 35.79 35.79;" xml:space="preserve"
	>
<g>
	<path d="M9.469,8.488c0-0.276,0.224-0.5,0.5-0.5l2.208,0.001l1.103-1.913c0.139-0.24,0.443-0.323,0.685-0.184
		c0.238,0.138,0.32,0.444,0.184,0.683l-1.392,2.414L9.971,8.988C9.693,8.988,9.469,8.765,9.469,8.488z M25.823,26.801h-2.785
		l-1.393,2.411c-0.138,0.239-0.056,0.545,0.185,0.683c0.079,0.045,0.165,0.067,0.25,0.067c0.174,0,0.342-0.09,0.435-0.25
		l1.104-1.911h2.207c0.275,0,0.5-0.224,0.5-0.5C26.323,27.025,26.099,26.801,25.823,26.801z M23.037,8.99h2.786
		c0.275,0,0.5-0.224,0.5-0.5c0-0.276-0.225-0.5-0.5-0.5h-2.208l-1.104-1.913c-0.139-0.24-0.444-0.321-0.684-0.183
		c-0.238,0.138-0.32,0.444-0.184,0.683L23.037,8.99z M12.754,26.801H9.967c-0.276,0-0.5,0.225-0.5,0.5c0,0.276,0.224,0.5,0.5,0.5
		h2.209l1.104,1.912c0.094,0.161,0.262,0.25,0.434,0.25c0.085,0,0.171-0.021,0.25-0.066c0.238-0.139,0.32-0.443,0.183-0.684
		L12.754,26.801z M5.536,20.492c0.079,0.045,0.165,0.066,0.25,0.066c0.174,0,0.342-0.09,0.435-0.25l1.391-2.413l-1.394-2.413
		c-0.138-0.24-0.444-0.321-0.684-0.183c-0.238,0.138-0.32,0.444-0.183,0.683l1.104,1.913l-1.104,1.913
		C5.214,20.047,5.296,20.354,5.536,20.492z M30.254,15.301c-0.239-0.137-0.546-0.056-0.685,0.183l-1.392,2.411l1.395,2.414
		c0.092,0.16,0.261,0.25,0.434,0.25c0.085,0,0.171-0.021,0.25-0.066c0.238-0.139,0.32-0.444,0.183-0.684l-1.104-1.914l1.104-1.912
		C30.576,15.745,30.494,15.438,30.254,15.301z M33.392,26.842c-0.092,0.16-0.261,0.25-0.433,0.25c-0.086,0-0.172-0.021-0.25-0.066
		l-0.98-0.565l-2.137,1.231c-0.077,0.043-0.164,0.066-0.25,0.066s-0.173-0.021-0.25-0.066l-2.385-1.377
		c-0.153-0.088-0.25-0.254-0.25-0.433v-0.854h-4.441l-2.225,3.852l0.736,0.428c0.154,0.088,0.25,0.254,0.25,0.432l0.001,2.755
		c0,0.179-0.096,0.344-0.25,0.433l-2.133,1.229v1.136c0,0.274-0.224,0.5-0.5,0.5s-0.5-0.226-0.5-0.5v-1.136l-2.136-1.23
		c-0.154-0.089-0.25-0.254-0.25-0.433l0.001-2.755c0-0.178,0.096-0.344,0.25-0.432l0.738-0.427l-2.224-3.849H9.333l0.001,0.851
		c0,0.179-0.096,0.345-0.25,0.435l-2.388,1.377c-0.077,0.045-0.164,0.068-0.25,0.068c-0.086,0-0.173-0.023-0.25-0.068L4.06,26.46
		l-0.983,0.567c-0.078,0.045-0.165,0.066-0.25,0.066c-0.172,0-0.341-0.089-0.433-0.25c-0.139-0.238-0.057-0.545,0.183-0.683
		l0.983-0.567l0.001-2.465c0-0.179,0.096-0.344,0.25-0.434l2.387-1.377c0.154-0.09,0.347-0.09,0.5,0l0.737,0.426l2.221-3.848
		l-2.222-3.849l-0.738,0.426c-0.077,0.044-0.164,0.067-0.25,0.067c-0.086,0-0.173-0.022-0.25-0.067l-2.385-1.377
		c-0.155-0.089-0.25-0.255-0.25-0.434l0.002-2.464L2.58,9.63C2.341,9.492,2.259,9.186,2.396,8.947
		C2.534,8.708,2.84,8.628,3.08,8.764l0.983,0.568l2.133-1.233c0.153-0.089,0.346-0.09,0.5,0l2.387,1.379
		c0.154,0.089,0.25,0.255,0.25,0.433v0.85h4.442l2.223-3.846l-0.74-0.427c-0.154-0.089-0.25-0.254-0.25-0.434l0.002-2.755
		c0-0.178,0.096-0.343,0.25-0.433l2.135-1.233V0.5c0-0.276,0.224-0.5,0.5-0.5s0.5,0.224,0.5,0.5v1.135l2.134,1.229
		c0.154,0.089,0.25,0.254,0.25,0.434l-0.002,2.755c0,0.178-0.096,0.343-0.25,0.433l-0.733,0.425l2.224,3.849h4.44L26.457,9.91
		c0-0.179,0.095-0.344,0.25-0.434l2.387-1.378c0.154-0.089,0.346-0.089,0.5,0l2.136,1.233l0.983-0.568
		c0.237-0.138,0.545-0.057,0.683,0.183c0.14,0.239,0.058,0.545-0.183,0.683l-0.984,0.568v2.464c0,0.179-0.096,0.344-0.25,0.433
		l-2.387,1.378c-0.077,0.044-0.164,0.067-0.25,0.067c-0.087,0-0.173-0.022-0.25-0.067l-0.736-0.426l-2.222,3.849l2.223,3.849
		l0.735-0.426c0.153-0.088,0.344-0.088,0.5,0l2.388,1.375c0.154,0.091,0.25,0.256,0.25,0.436l-0.002,2.462l0.983,0.568
		C33.449,26.297,33.531,26.604,33.392,26.842z M27.456,10.198l0.002,0.847v0.432l0.001,0.32v0.577l0.5,0.289l0.278,0.162
		l0.369,0.213l0.733,0.424l1.887-1.089v-1.599v-0.578l-0.499-0.289l-1.386-0.8L27.456,10.198z M18.927,7.413L18.395,7.72v3.404
		l5.113,2.954l2.949-1.702l-0.002-0.613h-5.02L18.927,7.413z M23.008,15.52v-0.578l-0.5-0.289l-4.113-2.375l-0.5-0.289l-0.5,0.289
		l-4.113,2.376l-0.5,0.289v0.578l-0.001,4.75v0.578l0.5,0.289l4.114,2.375l0.5,0.289l0.5-0.289l4.114-2.375l0.501-0.289v-0.578
		L23.008,15.52z M16.008,5.767l0.736,0.425l0.371,0.214l0.278,0.16l0.5,0.288l0.5-0.289l0.281-0.163l0.367-0.212l0.732-0.424
		l0.002-2.178l-1.38-0.797l-0.502-0.289l-0.498,0.287l-1.385,0.8L16.008,5.767z M9.333,12.374l2.949,1.703l5.113-2.954V7.72
		l-0.531-0.306l-2.509,4.347H9.333V12.374z M7.833,12.665l0.499-0.289v-0.578v-0.326l0.001-0.422V10.2L6.447,9.11l-1.384,0.8
		l-0.499,0.289v0.578l-0.002,1.599l1.885,1.088l0.735-0.425l0.371-0.214L7.833,12.665z M8.334,25.592l-0.002-0.85v-0.426
		l-0.001-0.323v-0.577l-0.5-0.289l-0.293-0.169l-0.354-0.205L6.45,22.329l-1.887,1.089l-0.001,1.598v0.578l0.5,0.289l1.386,0.801
		L8.334,25.592z M11.781,20.848l0.001-5.905l-2.947-1.702l-0.532,0.307l2.511,4.348l-2.51,4.348l0.529,0.307L11.781,20.848z
		 M16.865,28.378l0.53-0.306v-3.405l-5.114-2.954l-2.948,1.702l0.002,0.612l5.021,0.002L16.865,28.378z M19.781,32.204l-0.002-2.177
		l-0.762-0.439l-0.339-0.195l-0.283-0.166l-0.5-0.289l-0.5,0.289l-0.279,0.162l-0.349,0.2l-0.757,0.437l-0.001,2.177l1.386,0.799
		l0.501,0.289l0.499-0.288L19.781,32.204z M26.457,23.416l-2.948-1.702l-5.114,2.953v3.405l0.531,0.307l2.512-4.35h5.021
		L26.457,23.416L26.457,23.416z M26.957,22.551l0.53-0.307l-2.512-4.348l2.512-4.349l-0.53-0.307l-2.949,1.703l0.002,5.905
		L26.957,22.551z M31.228,23.417L29.34,22.33l-0.734,0.424l-0.348,0.201l-0.3,0.173l-0.501,0.289v0.578v0.319l0.001,0.43v0.852
		l1.884,1.088l1.386-0.802l0.498-0.286l0.001-0.58L31.228,23.417z"/>
</g>
<g>
</g>
<g>
</g>
<g>
</g>
<g>
</g>
<g>
</g>
<g>
</g>
<g>
</g>
<g>
</g>
<g>
</g>
<g>
</g>
<g>
</g>
<g>
</g>
<g>
</g>
<g>
</g>
<g>
</g>
</svg>
